HIERARCHY
ROOT pelvis
{
	OFFSET 0.003123 -0.351407 0.012037
	CHANNELS 6 Xposition Yposition Zposition Zrotation Yrotation Xrotation 
	JOINT left_hip
	{
		OFFSET 0.058189 -0.092763 -0.026001
		CHANNELS 3 Zrotation Yrotation Xrotation
		JOINT left_knee
		{
			OFFSET 0.054695 -0.378753 -0.009396
			CHANNELS 3 Zrotation Yrotation Xrotation
			JOINT left_ankle
			{
				OFFSET -0.043453 -0.403059 -0.031876
				CHANNELS 3 Zrotation Yrotation Xrotation
				JOINT left_foot
				{
					OFFSET 0.047257 -0.057997 0.118216
					CHANNELS 3 Zrotation Yrotation Xrotation
					End Site
					{
						OFFSET 0.000000 0.000000 0.000000
					}
				}
			}
		}
	}
	JOINT right_hip
	{
		OFFSET -0.063267 -0.103908 -0.021250
		CHANNELS 3 Zrotation Yrotation Xrotation
		JOINT right_knee
		{
			OFFSET -0.044210 -0.362380 -0.016824
			CHANNELS 3 Zrotation Yrotation Xrotation
			JOINT right_ankle
			{
				OFFSET 0.015417 -0.410728 -0.020192
				CHANNELS 3 Zrotation Yrotation Xrotation
				JOINT right_foot
				{
					OFFSET -0.038812 -0.058328 0.119049
					CHANNELS 3 Zrotation Yrotation Xrotation
					End Site
					{
						OFFSET 0.000000 0.000000 0.000000
					}
				}
			}
		}
	}
	JOINT spine_1
	{
		OFFSET -0.002763 0.109891 -0.027618
		CHANNELS 3 Zrotation Yrotation Xrotation
		JOINT spine_2
		{
			OFFSET 0.009448 0.131853 -0.005940
			CHANNELS 3 Zrotation Yrotation Xrotation
			JOINT spine_3
			{
				OFFSET -0.011330 0.052235 0.028447
				CHANNELS 3 Zrotation Yrotation Xrotation
				JOINT neck
				{
					OFFSET -0.012164 0.165167 -0.031615
					CHANNELS 3 Zrotation Yrotation Xrotation
					JOINT head
					{
						OFFSET 0.024783 0.160452 0.020737
						CHANNELS 3 Zrotation Yrotation Xrotation
						End Site
						{
							OFFSET 0.000000 0.000000 0.000000
						}
					}
				}
				JOINT left_collar
				{
					OFFSET 0.046364 0.084944 -0.007220
					CHANNELS 3 Zrotation Yrotation Xrotation
					JOINT left_shoulder
					{
						OFFSET 0.119239 0.057728 -0.015461
						CHANNELS 3 Zrotation Yrotation Xrotation
						JOINT left_elbow
						{
							OFFSET 0.254123 -0.072151 -0.042459
							CHANNELS 3 Zrotation Yrotation Xrotation
							JOINT left_wrist
							{
								OFFSET 0.251987 0.023221 -0.002472
								CHANNELS 3 Zrotation Yrotation Xrotation
								JOINT left_index_1
								{
									OFFSET 0.101902 -0.008688 0.019351
									CHANNELS 3 Zrotation Yrotation Xrotation
									JOINT left_index_2
									{
										OFFSET 0.030149 -0.011154 0.001151
										CHANNELS 3 Zrotation Yrotation Xrotation
										JOINT left_index_3
										{
											OFFSET 0.006504 -0.021577 -0.002433
											CHANNELS 3 Zrotation Yrotation Xrotation
											End Site
											{
												OFFSET 0.000000 0.000000 0.000000
											}
										}
									}
								}
								JOINT left_middle_1
								{
									OFFSET 0.109398 -0.006328 -0.003981
									CHANNELS 3 Zrotation Yrotation Xrotation
									JOINT left_middle_2
									{
										OFFSET 0.026472 -0.015218 -0.004641
										CHANNELS 3 Zrotation Yrotation Xrotation
										JOINT left_middle_3
										{
											OFFSET 0.005022 -0.023347 -0.001911
											CHANNELS 3 Zrotation Yrotation Xrotation
											End Site
											{
												OFFSET 0.000000 0.000000 0.000000
											}
										}
									}
								}
								JOINT left_pinky_1
								{
									OFFSET 0.084047 -0.014539 -0.043750
									CHANNELS 3 Zrotation Yrotation Xrotation
									JOINT left_pinky_2
									{
										OFFSET 0.012124 -0.014448 -0.005375
										CHANNELS 3 Zrotation Yrotation Xrotation
										JOINT left_pinky_3
										{
											OFFSET 0.003798 -0.018853 0.000167
											CHANNELS 3 Zrotation Yrotation Xrotation
											End Site
											{
												OFFSET 0.000000 0.000000 0.000000
											}
										}
									}
								}
								JOINT left_ring_1
								{
									OFFSET 0.097444 -0.009268 -0.027345
									CHANNELS 3 Zrotation Yrotation Xrotation
									JOINT left_ring_2
									{
										OFFSET 0.023561 -0.016057 -0.001895
										CHANNELS 3 Zrotation Yrotation Xrotation
										JOINT left_ring_3
										{
											OFFSET 0.004257 -0.023548 0.000814
											CHANNELS 3 Zrotation Yrotation Xrotation
											End Site
											{
												OFFSET 0.000000 0.000000 0.000000
											}
										}
									}
								}
								JOINT left_thumb_1
								{
									OFFSET 0.040636 -0.017977 0.025611
									CHANNELS 3 Zrotation Yrotation Xrotation
									JOINT left_thumb_2
									{
										OFFSET 0.021637 -0.017639 0.011623
										CHANNELS 3 Zrotation Yrotation Xrotation
										JOINT left_thumb_3
										{
											OFFSET 0.024002 -0.008356 0.006548
											CHANNELS 3 Zrotation Yrotation Xrotation
											End Site
											{
												OFFSET 0.000000 0.000000 0.000000
											}
										}
									}
								}
							}
						}
					}
				}
				JOINT right_collar
				{
					OFFSET -0.047695 0.084339 -0.013400
					CHANNELS 3 Zrotation Yrotation Xrotation
					JOINT right_shoulder
					{
						OFFSET -0.102578 0.053524 -0.012669
						CHANNELS 3 Zrotation Yrotation Xrotation
						JOINT right_elbow
						{
							OFFSET -0.271150 -0.036492 -0.026467
							CHANNELS 3 Zrotation Yrotation Xrotation
							JOINT right_wrist
							{
								OFFSET -0.249267 -0.004533 -0.015325
								CHANNELS 3 Zrotation Yrotation Xrotation
								JOINT right_index_1
								{
									OFFSET -0.099881 -0.011783 0.019600
									CHANNELS 3 Zrotation Yrotation Xrotation
									JOINT right_index_2
									{
										OFFSET -0.030148 -0.011154 0.001151
										CHANNELS 3 Zrotation Yrotation Xrotation
										JOINT right_index_3
										{
											OFFSET -0.006505 -0.021577 -0.002432
											CHANNELS 3 Zrotation Yrotation Xrotation
											End Site
											{
												OFFSET 0.000000 0.000000 0.000000
											}
										}
									}
								}
								JOINT right_middle_1
								{
									OFFSET -0.107376 -0.009422 -0.003734
									CHANNELS 3 Zrotation Yrotation Xrotation
									JOINT right_middle_2
									{
										OFFSET -0.026472 -0.015218 -0.004641
										CHANNELS 3 Zrotation Yrotation Xrotation
										JOINT right_middle_3
										{
											OFFSET -0.005022 -0.023347 -0.001911
											CHANNELS 3 Zrotation Yrotation Xrotation
											End Site
											{
												OFFSET 0.000000 0.000000 0.000000
											}
										}
									}
								}
								JOINT right_pinky_1
								{
									OFFSET -0.082027 -0.017634 -0.043503
									CHANNELS 3 Zrotation Yrotation Xrotation
									JOINT right_pinky_2
									{
										OFFSET -0.012123 -0.014448 -0.005374
										CHANNELS 3 Zrotation Yrotation Xrotation
										JOINT right_pinky_3
										{
											OFFSET -0.003798 -0.018852 0.000167
											CHANNELS 3 Zrotation Yrotation Xrotation
											End Site
											{
												OFFSET 0.000000 0.000000 0.000000
											}
										}
									}
								}
								JOINT right_ring_1
								{
									OFFSET -0.095423 -0.012362 -0.027099
									CHANNELS 3 Zrotation Yrotation Xrotation
									JOINT right_ring_2
									{
										OFFSET -0.023561 -0.016057 -0.001895
										CHANNELS 3 Zrotation Yrotation Xrotation
										JOINT right_ring_3
										{
											OFFSET -0.004257 -0.023548 0.000816
											CHANNELS 3 Zrotation Yrotation Xrotation
											End Site
											{
												OFFSET 0.000000 0.000000 0.000000
											}
										}
									}
								}
								JOINT right_thumb_1
								{
									OFFSET -0.038613 -0.021074 0.025861
									CHANNELS 3 Zrotation Yrotation Xrotation
									JOINT right_thumb_2
									{
										OFFSET -0.021636 -0.017639 0.011623
										CHANNELS 3 Zrotation Yrotation Xrotation
										JOINT right_thumb_3
										{
											OFFSET -0.024004 -0.008353 0.006547
											CHANNELS 3 Zrotation Yrotation Xrotation
											End Site
											{
												OFFSET 0.000000 0.000000 0.000000
											}
										}
									}
								}
							}
						}
					}
				}
			}
		}
	}
}
MOTION
Frames: 4
Frame Time: 0.050000
0.000027 0.938684 0.000587 1.097882 -5.687426 -13.952055 -1.139485 -0.002896 0.043750 -5.834683 -0.770139 32.994295 -12.698673 -17.664358 8.066608 0.000000 0.000000 0.000000 -0.753667 -0.633803 6.204095 -1.431493 0.076795 0.292318 8.620194 15.117233 2.866749 0.000000 0.000000 0.000000 -3.166235 -0.650913 8.653409 -7.056096 2.053096 -5.877167 11.726309 2.519518 28.105799 2.038421 -0.866093 2.803518 0.000000 0.000000 0.000000 -8.147042 -10.571245 5.377599 -44.987786 -33.074884 -4.537603 -23.591570 -27.039057 8.461404 -0.946775 -14.993129 -0.700369 -21.285239 -3.577198 0.300774 -1.702350 -0.641719 -2.667120 0.000000 0.000000 0.000000 -14.870658 -4.673986 -4.259783 -0.379117 -0.614675 -2.999572 0.000000 0.000000 0.000000 16.703837 -10.870160 -9.128719 -7.025393 1.034882 4.071729 0.000000 0.000000 0.000000 -7.637001 -3.648421 -2.663367 -2.805568 -0.895803 -3.877851 0.000000 0.000000 0.000000 -3.136585 5.509365 5.988999 -7.189318 -7.823094 -0.294386 0.000000 0.000000 0.000000 -0.125699 13.318353 6.827369 35.612604 27.790342 0.406879 11.521205 21.895314 1.124338 -8.479133 8.950676 -4.337326 11.627725 3.901542 -0.302144 -3.958586 1.706642 -5.455864 0.000000 0.000000 0.000000 11.299893 7.537810 -4.880893 3.064938 1.145547 -5.967751 0.000000 0.000000 0.000000 -13.548475 13.171536 -13.723524 13.476468 -0.545630 2.150577 0.000000 0.000000 0.000000 17.829956 8.592373 -4.812794 22.715092 8.437712 -18.191984 0.000000 0.000000 0.000000 -14.323007 -5.204012 -3.640414 12.156860 -0.048460 3.203060 0.000000 0.000000 0.000000 
-0.001151 0.938361 -0.000732 1.011520 -4.043308 -14.130001 -1.867079 0.145211 0.956792 -6.682230 -0.684583 33.878138 -6.403991 -12.115130 1.347786 0.000000 0.000000 0.000000 -0.701887 -0.751568 7.127740 -1.492925 0.034046 -0.744819 8.002438 13.875538 2.881693 0.000000 0.000000 0.000000 -3.420551 -0.638921 8.701791 -6.891302 1.991300 -5.998526 12.051455 2.810558 27.198587 2.401488 -1.170710 4.143032 0.000000 0.000000 0.000000 -8.158251 -11.365550 5.696135 -45.373784 -31.901935 -4.768875 -23.843100 -26.066882 8.153168 -1.382381 -14.601430 0.259679 -22.069373 -2.852359 0.368387 -4.386928 -0.271729 -2.296271 0.000000 0.000000 0.000000 -14.951198 -5.148697 -4.528135 0.679442 -0.203514 -0.691671 0.000000 0.000000 0.000000 17.541329 -10.992507 -8.714319 -8.263069 1.125993 4.339778 0.000000 0.000000 0.000000 -7.585909 -3.530775 -2.616125 -0.845494 -0.514721 -2.693448 0.000000 0.000000 0.000000 -2.878356 5.132739 5.608219 -7.990619 -7.165353 0.201068 0.000000 0.000000 0.000000 0.407583 12.381155 6.387717 36.259061 27.332537 0.639640 11.657760 22.597273 1.234392 -10.080282 9.315574 -4.951569 12.045691 4.864839 -0.411844 -3.996842 1.904172 -6.511068 0.000000 0.000000 0.000000 11.372402 8.502604 -5.210893 2.938958 1.310392 -6.713080 0.000000 0.000000 0.000000 -12.132364 13.247186 -14.157783 12.637880 -0.488358 2.008972 0.000000 0.000000 0.000000 19.963178 10.981564 -5.612675 24.437243 8.532973 -17.273237 0.000000 0.000000 0.000000 -15.365403 -4.915082 -4.655359 12.637102 0.790502 3.099901 0.000000 0.000000 0.000000 
-0.002682 0.937878 -0.002052 0.821219 -2.767126 -14.118046 -2.168021 0.342391 2.109324 -7.343501 -0.599842 33.704524 -2.378902 -8.420956 -3.605905 0.000000 0.000000 0.000000 -0.494697 -0.827093 7.506450 -1.498460 0.011549 -1.274672 7.461068 12.875606 2.816498 0.000000 0.000000 0.000000 -3.395004 -0.584039 7.535709 -6.865922 2.163755 -5.523826 12.234664 2.971298 28.012491 2.748759 -1.111087 3.369025 0.000000 0.000000 0.000000 -7.944074 -11.256092 5.533139 -45.474725 -31.867890 -4.949433 -23.755118 -24.571712 7.611417 -1.652635 -14.307402 1.049458 -22.772154 -2.383506 0.403432 -3.958206 0.255754 -0.664335 0.000000 0.000000 0.000000 -15.458122 -3.858716 -4.099338 0.683377 -0.068405 -0.014711 0.000000 0.000000 0.000000 16.389598 -10.823680 -8.512333 -9.839961 1.233554 4.598345 0.000000 0.000000 0.000000 -7.124601 -2.060293 -1.761055 -2.944901 -0.851850 -3.953749 0.000000 0.000000 0.000000 -3.428174 5.425062 6.114266 -8.173225 -7.232049 0.279923 0.000000 0.000000 0.000000 0.882456 11.267965 5.843769 36.802576 27.701618 0.922911 11.205786 23.732194 1.297933 -10.528509 10.157511 -6.853820 11.320422 4.504625 -0.324567 -2.945662 1.744846 -6.405441 0.000000 0.000000 0.000000 10.665105 7.691018 -4.740739 3.991367 1.735684 -8.335012 0.000000 0.000000 0.000000 -12.481631 13.483762 -14.890015 12.011917 -0.515309 2.093509 0.000000 0.000000 0.000000 19.638421 11.749633 -5.795161 26.707348 10.488522 -19.421398 0.000000 0.000000 0.000000 -14.635206 -5.107923 -4.216919 11.215156 2.971682 2.093800 0.000000 0.000000 0.000000 
-0.003624 0.937233 -0.004692 0.562752 -1.077677 -13.903494 -2.164009 0.481152 2.916479 -7.771691 -0.643514 32.854750 -0.138384 -6.420355 -6.658784 0.000000 0.000000 0.000000 -0.284671 -0.846677 7.344892 -1.477482 0.011002 -1.337616 6.675532 11.505309 2.633798 0.000000 0.000000 0.000000 -3.558664 -0.563906 7.376351 -6.628973 1.673083 -7.003545 12.098484 2.122621 29.000714 2.658166 -1.147662 3.650370 0.000000 0.000000 0.000000 -8.421841 -10.328621 4.975667 -45.478146 -30.419601 -5.238312 -23.845525 -23.013735 7.117435 -2.216385 -13.020804 2.586829 -24.234640 -1.601269 0.466258 -3.713979 -0.104156 -1.647175 0.000000 0.000000 0.000000 -15.776740 -4.665824 -4.543970 0.118952 -0.283413 -1.291346 0.000000 0.000000 0.000000 16.327322 -11.123144 -8.654319 -9.412335 0.667907 2.596814 0.000000 0.000000 0.000000 -6.593535 -3.414061 -2.546955 -1.434248 -0.371153 -1.955984 0.000000 0.000000 0.000000 -3.365056 5.161427 5.906715 -8.806849 -8.188108 0.296124 0.000000 0.000000 0.000000 1.431258 12.023136 6.277955 37.085386 27.805175 0.989629 11.375168 24.229911 1.372784 -12.076723 10.780972 -8.579352 11.877204 4.781105 -0.236841 -1.563355 1.624101 -6.451017 0.000000 0.000000 0.000000 11.501457 8.430237 -4.975782 3.265041 1.518783 -7.488941 0.000000 0.000000 0.000000 -10.322432 13.372761 -15.197150 11.413941 -0.393442 1.705671 0.000000 0.000000 0.000000 21.428591 12.549359 -5.756106 26.190834 9.983274 -18.183404 0.000000 0.000000 0.000000 -15.158974 -4.608150 -5.142119 12.626285 1.687084 2.792096 0.000000 0.000000 0.000000 
